<?xml version="1.0" encoding="utf-8"?>
<!-- Generator: Adobe Illustrator 16.0.0, SVG Export Plug-In . SVG Version: 6.00 Build 0)  -->
<!DOCTYPE svg PUBLIC "-//W3C//DTD SVG 1.1//EN" "http://www.w3.org/Graphics/SVG/1.1/DTD/svg11.dtd">
<svg version="1.1" id="Layer_1" xmlns="http://www.w3.org/2000/svg" xmlns:xlink="http://www.w3.org/1999/xlink" x="0px" y="0px"
	 width="140px" height="32px" viewBox="0 0 140 32" enable-background="new 0 0 140 32" xml:space="preserve">
<g>
	<g>
		<g>
			<path fill="#FFFFFF" class="st0" d="M80.7,13.6c-1.2,1.2-2.7,1.8-4.5,1.8s-3.3-0.6-4.5-1.8s-1.8-2.7-1.8-4.6s0.6-3.3,1.8-4.6
				c1.2-1.2,2.7-1.8,4.5-1.8s3.3,0.6,4.5,1.8s1.8,2.7,1.8,4.6S81.9,12.4,80.7,13.6z M79.8,9c0-1.1-0.3-2-1-2.8C78,5.4,77.2,5,76.2,5
				s-1.9,0.4-2.5,1.2c-0.7,0.8-1,1.7-1,2.8s0.3,2,1,2.8s1.5,1.2,2.5,1.2s1.9-0.4,2.5-1.2C79.4,11.1,79.8,10.1,79.8,9z"/>
		</g>
	</g>
</g>
<g class="st1">
	<path fill="#FFFFFF" class="st2" d="M14.9,1.7h10c3.9,0,6.8,0.6,8.6,1.7c1.9,1.2,2.8,2.9,2.8,5.4c0,1.6-0.4,3-1.2,4.1s-1.9,1.9-3.2,2.2v0.2
		c1.8,0.5,3.1,1.2,3.8,2.3c0.8,1.1,1.2,2.5,1.2,4.3c0,2.6-1,4.6-2.9,6.1c-1.9,1.5-4.6,2.2-8,2.2H14.9V1.7z M22.6,12.6h2.3
		c1.1,0,2-0.2,2.6-0.7s0.9-1.1,0.9-2c0-1.6-1.2-2.4-3.6-2.4h-2.2V12.6z M22.6,18.3v6h2.7c2.4,0,3.6-1,3.6-3c0-1-0.3-1.7-1-2.2
		s-1.6-0.8-2.8-0.8H22.6z"/>
	<path fill="#FFFFFF" class="st2" d="M66,15.3c0,4.8-1.3,8.4-3.9,11c-2.6,2.6-6.3,3.9-11.1,3.9h-9.2V1.7h9.9c4.6,0,8.1,1.2,10.6,3.5
		C64.8,7.5,66,10.9,66,15.3z M58,15.6c0-2.6-0.5-4.6-1.6-5.8s-2.6-1.9-4.7-1.9h-2.2v16h1.7c2.3,0,4.1-0.7,5.2-2S58,18.4,58,15.6z"/>
</g>
<g class="st1">
	<path fill="#FFFFFF" class="st2" d="M119.3,24.7h-3.1v5.5h-7.6v-5.5H97.1V19L109,1.7h7.1v17.3h3.1V24.7z M108.5,18.9v-3.3c0-0.6,0-1.5,0.1-2.5
		c0-1.1,0.1-1.6,0.1-1.7h-0.2c-0.4,1-0.9,1.9-1.5,2.8l-3.2,4.7H108.5z"/>
</g>
</svg>
